<svg data-name="Calque 1" xmlns="http://www.w3.org/2000/svg" viewBox="0 0 725.72 135.52"><title>logo-sd-sans_baseline</title><path fill="#e7622d" d="M127.07 26.72V2.08H93.55v8.31L74.84 0 58.95 10.26l68.12 16.46zM135.13 114.7V90.8L14.81 116.55v18.58h69.25l51.07-20.43zM147.86 58.02v-9.69l-19.33-12.57-1.2-.42-83.89-15.06L0 48.33v5.53l147.86 4.16zM97.45 135.13h37.68v-15.69l-37.68 15.69zM0 66.22v5.24h14.81V108l120.32-20.75V70.68h12.73v-5.66L0 66.22z"/><path fill="#ec8554" d="M127.07 26.72V2.08H93.55v8.31L74.84 0 58.95 10.26l68.12 16.46zM135.13 114.7V90.8L14.81 116.55v18.58h69.25l51.07-20.43zM147.86 58.02v-9.69l-19.33-12.57-1.2-.42-83.89-15.06L0 48.33v5.53l147.86 4.16zM97.45 135.13h37.68v-15.69l-37.68 15.69zM0 66.22v5.24h14.81V108l120.32-20.75V70.68h12.73v-5.66L0 66.22z"/><path d="M127.07 26.72V2.07h-10.39a81 81 0 0 1 4.09 23.12zM15.33 116.43l-.52.12v18.58h69.25l51.07-20.43V90.8l-62.55 13.38a106.26 106.26 0 0 1-50.39 12.49c-2.31 0-4.59-.09-6.86-.24zM147.86 58.02v-9.69l-19.33-12.58-1.2-.41-6.78-1.22a80.71 80.71 0 0 1-5.26 23zM135.13 135.13v-15.69l-37.68 15.69h37.68zM85.68 95.77l49.45-8.51V70.68h12.73v-5.67l-36.28.3a91 91 0 0 1-25.9 30.46z" fill="#e7622d"/><path d="M181.3 78.12a19.91 19.91 0 0 1-8.33-1.63 32.53 32.53 0 0 1-6.67-4V54.97h.94a25.26 25.26 0 0 0 6.81 7.16 13.07 13.07 0 0 0 7.23 2.5 10.09 10.09 0 0 0 2.33-.35 5.67 5.67 0 0 0 2.33-1.09 6.83 6.83 0 0 0 1.82-2.38 9.13 9.13 0 0 0 .74-4 7.68 7.68 0 0 0-1.21-4.55 7.34 7.34 0 0 0-2.9-2.54q-2.1-1-4.5-1.89a24.6 24.6 0 0 1-4.46-2.18 17 17 0 0 1-6.86-8.16 34.34 34.34 0 0 1-2.07-12.82q0-10.4 4.92-16.83t12.26-6.41a21.27 21.27 0 0 1 7.35 1.33 23.57 23.57 0 0 1 6.65 3.61v16.8h-1a22.36 22.36 0 0 0-5.61-5.86 11.45 11.45 0 0 0-6.8-2.39 8 8 0 0 0-2.44.34 7.12 7.12 0 0 0-2.27 1.34 6.37 6.37 0 0 0-1.68 2.36 8.37 8.37 0 0 0-.7 3.49 8 8 0 0 0 1.11 4.5 9.43 9.43 0 0 0 4.33 3l4 1.64a26 26 0 0 1 4.11 2.19 16.9 16.9 0 0 1 6.4 7.48q2.08 4.69 2.08 12.4 0 11-4.84 17.74a15.3 15.3 0 0 1-13.07 6.71M214.18 76.71V16.93H201.9V3.04h35.08v13.89h-12.29v59.78h-10.51zM279.08 40q0 17.94-5.4 28.23t-14.84 10.29q-9.44 0-14.82-10.42T238.68 40q0-17.85 5.38-28.21t14.82-10.36q9.43 0 14.84 10.32t5.4 28.25m-10.7 0a69.84 69.84 0 0 0-.78-11.3 33.25 33.25 0 0 0-2.09-7.65 11 11 0 0 0-3.08-4.36 5.76 5.76 0 0 0-3.55-1.32 5.64 5.64 0 0 0-3.55 1.22 11.94 11.94 0 0 0-3.07 4.36 32.67 32.67 0 0 0-2.11 7.68 70.67 70.67 0 0 0-.8 11.42 69.93 69.93 0 0 0 .76 11.35 32.61 32.61 0 0 0 2.1 7.55 11 11 0 0 0 3.09 4.41 5.81 5.81 0 0 0 3.58 1.32 5.69 5.69 0 0 0 3.62-1.42 11.26 11.26 0 0 0 3-4.41 34.52 34.52 0 0 0 2.14-7.59 69.58 69.58 0 0 0 .74-11.29M323.44 76.71h-12.62l-11.52-27h-3.62v27h-10.5V3.04h16.6a21.33 21.33 0 0 1 6 .76 10.41 10.41 0 0 1 4.71 3.2 18.46 18.46 0 0 1 3.52 6.41 31.58 31.58 0 0 1 1.3 9.88q0 8.46-2.12 13.74a21.57 21.57 0 0 1-5.66 8.39zM306.6 25.48a17 17 0 0 0-.59-4.75 5.92 5.92 0 0 0-1.93-3.07 4.79 4.79 0 0 0-2.11-.94 18.08 18.08 0 0 0-2.9-.19h-3.39v19.73h2.9a12.14 12.14 0 0 0 3.59-.46 4.84 4.84 0 0 0 2.49-2 9.48 9.48 0 0 0 1.45-3.3 21.3 21.3 0 0 0 .48-5M328.05 76.71V3.04H356v13.89h-17.44v13.09h16.05V43.9h-16.05v18.92H356v13.89h-27.95zM377.4 78.12a20 20 0 0 1-8.33-1.63 32.8 32.8 0 0 1-6.67-4V54.97h.94a25.15 25.15 0 0 0 6.82 7.16 13 13 0 0 0 7.22 2.5 10.16 10.16 0 0 0 2.3-.37 5.57 5.57 0 0 0 2.32-1.09 6.72 6.72 0 0 0 1.82-2.38 9.12 9.12 0 0 0 .75-4 7.61 7.61 0 0 0-1.18-4.53 7.34 7.34 0 0 0-2.9-2.54q-2.1-1-4.49-1.89a24 24 0 0 1-4.46-2.18 16.94 16.94 0 0 1-6.86-8.14 34.12 34.12 0 0 1-2.08-12.82q0-10.4 4.93-16.83t12.29-6.43a21.36 21.36 0 0 1 7.36 1.33 23.51 23.51 0 0 1 6.55 3.61v16.8h-.91a22.56 22.56 0 0 0-5.62-5.86 11.43 11.43 0 0 0-6.8-2.39 8 8 0 0 0-2.44.34 7.12 7.12 0 0 0-2.28 1.34 6.47 6.47 0 0 0-1.67 2.36 8.22 8.22 0 0 0-.71 3.49 8 8 0 0 0 1.11 4.5 9.49 9.49 0 0 0 4.33 3l4 1.64a26.52 26.52 0 0 1 4.12 2.19 17 17 0 0 1 6.37 7.48q2.08 4.69 2.08 12.4 0 11-4.83 17.74a15.32 15.32 0 0 1-13.08 6.71M462.44 39.95a61.6 61.6 0 0 1-2.54 18.43q-2.54 8.14-6.41 12.49a14.79 14.79 0 0 1-7 4.78 30.31 30.31 0 0 1-8.1 1.06h-13V3.04h12.87a32.48 32.48 0 0 1 8.19 1 14.52 14.52 0 0 1 7.17 4.8 33.25 33.25 0 0 1 6.47 12.54 64.93 64.93 0 0 1 2.37 18.58m-10.7-.13a47.35 47.35 0 0 0-1.41-12.38 17.7 17.7 0 0 0-4.31-8.05 7.24 7.24 0 0 0-4.43-2.27c-1.54-.13-3.38-.19-5.52-.19h-.2v45.89h.2c2.33 0 4.28-.07 5.89-.22a7.08 7.08 0 0 0 4.56-2.63 18.93 18.93 0 0 0 3.88-7.89 48.3 48.3 0 0 0 1.34-12.26M499.17 78.12a19.91 19.91 0 0 1-8.33-1.63 32.2 32.2 0 0 1-6.66-4V54.97h.93a25.15 25.15 0 0 0 6.82 7.16 13 13 0 0 0 7.22 2.5 9.94 9.94 0 0 0 2.32-.35 5.6 5.6 0 0 0 2.34-1.09 6.83 6.83 0 0 0 1.82-2.38 9.12 9.12 0 0 0 .75-4 7.68 7.68 0 0 0-1.22-4.55 7.41 7.41 0 0 0-2.9-2.54q-2.1-1-4.49-1.89a24.78 24.78 0 0 1-4.48-2.18 16.9 16.9 0 0 1-6.84-8.16 34.12 34.12 0 0 1-2.08-12.82q0-10.4 4.92-16.83t12.3-6.43a21.27 21.27 0 0 1 7.35 1.33 23.51 23.51 0 0 1 6.55 3.61v16.8h-.91a22.53 22.53 0 0 0-5.61-5.86 11.45 11.45 0 0 0-6.8-2.39 8 8 0 0 0-2.44.34 7.12 7.12 0 0 0-2.27 1.34 6.37 6.37 0 0 0-1.68 2.36 8.37 8.37 0 0 0-.71 3.49 7.91 7.91 0 0 0 1.13 4.5 9.4 9.4 0 0 0 4.32 3l4 1.64a26 26 0 0 1 4.11 2.19 16.82 16.82 0 0 1 6.36 7.5c1.39 3.13 2.1 7.26 2.1 12.4q0 11-4.84 17.74a15.33 15.33 0 0 1-13.08 6.71M541.68 78.12q-9.36 0-14.87-10T521.3 39.9q0-17.55 5.52-28t14.89-10.43a18.46 18.46 0 0 1 4.47.5 19.06 19.06 0 0 1 3.81 1.38 22.68 22.68 0 0 1 3.1 2c1.12.85 2 1.6 2.71 2.23v17.6h-1.07c-.5-.79-1.14-1.73-1.9-2.83a32.2 32.2 0 0 0-2.61-3.24 16.56 16.56 0 0 0-3.21-2.68 6.81 6.81 0 0 0-3.67-1.11 7.35 7.35 0 0 0-4.16 1.26 12.19 12.19 0 0 0-3.61 4.38 27 27 0 0 0-2.56 7.61 56.63 56.63 0 0 0-1 11.33 54.34 54.34 0 0 0 1 11.54 25.8 25.8 0 0 0 2.72 7.54 11 11 0 0 0 3.63 4 7.53 7.53 0 0 0 4 1.24 7.21 7.21 0 0 0 4-1.21 15.27 15.27 0 0 0 3.18-2.71 26.67 26.67 0 0 0 2.46-3.12c.71-1.05 1.33-2 1.85-2.83h1v17.4c-.76.62-1.65 1.35-2.66 2.16a19.54 19.54 0 0 1-3.09 2.06 22.72 22.72 0 0 1-3.68 1.59 15.72 15.72 0 0 1-4.74.56zM599.9 40q0 17.94-5.41 28.23t-14.81 10.29q-9.47 0-14.84-10.42T559.47 40q0-17.85 5.37-28.21t14.84-10.36q9.4 0 14.82 10.32T599.91 40m-10.7 0a71 71 0 0 0-.78-11.3 32.71 32.71 0 0 0-2.1-7.65 11.16 11.16 0 0 0-3.06-4.36 5.81 5.81 0 0 0-3.59-1.37 5.64 5.64 0 0 0-3.54 1.22 11.94 11.94 0 0 0-3.07 4.36 32.19 32.19 0 0 0-2.11 7.68 69.55 69.55 0 0 0-.8 11.42 69.93 69.93 0 0 0 .76 11.35 31.65 31.65 0 0 0 2.1 7.55 11 11 0 0 0 3.09 4.41 5.81 5.81 0 0 0 3.57 1.32 5.7 5.7 0 0 0 3.63-1.42 11.26 11.26 0 0 0 3-4.41 35.66 35.66 0 0 0 2.1-7.56 69.58 69.58 0 0 0 .74-11.29M625.56 78.52a14.34 14.34 0 0 1-12.88-7.19q-4.49-7.21-4.49-21.07V3.04h10.52v46.29c0 5.15.53 9 1.61 11.51s2.8 3.79 5.22 3.79 4.09-1.21 5.18-3.63 1.67-6.32 1.67-11.67V3.04h10.51v47.22q0 13.65-4.39 21a14.18 14.18 0 0 1-12.95 7.26zM686.29 76.71h-10.02l-15.76-51.35v51.35H651V3.04h12.72l13.05 42.2V3.04h9.52v73.67zM702.92 76.71V16.93h-12.29V3.04h35.09v13.89h-12.29v59.78h-10.51zM467.13 3.04h10.51v73.67h-10.51zM399.36 37.26h18.44v13.69h-18.44z" fill="#4a4c4f"/><path d="M186.68 31.6l-4-1.64a9.43 9.43 0 0 1-4.33-3 7.91 7.91 0 0 1-1.12-4.5 8.4 8.4 0 0 1 .71-3.49 6.37 6.37 0 0 1 1.68-2.36 7.12 7.12 0 0 1 2.24-1.35 8 8 0 0 1 2.44-.34 11.45 11.45 0 0 1 6.8 2.39 22.36 22.36 0 0 1 5.58 5.86h1V6.37a23.57 23.57 0 0 0-6.56-3.61 21.32 21.32 0 0 0-7.44-1.33c-4.9 0-9 2.14-12.29 6.43s-4.92 9.91-4.92 16.83a44.58 44.58 0 0 0 .48 6.8q11.77 1.27 23.95 2.43c-.06 0-.11-.09-.18-.13a26 26 0 0 0-4.04-2.19zM236.98 16.93V3.04H201.9v13.89h12.29v19.09q5.22.45 10.5.87v-20zM273.68 11.75q-5.4-10.32-14.83-10.32t-14.83 10.36q-5.07 9.77-5.34 26.18l10.68.77a68.13 68.13 0 0 1 .79-10.16 32.67 32.67 0 0 1 2.11-7.68 11.94 11.94 0 0 1 3.07-4.36 5.64 5.64 0 0 1 3.55-1.22 5.76 5.76 0 0 1 3.55 1.32 11 11 0 0 1 3.08 4.36 33.2 33.2 0 0 1 2.09 7.66 69.63 69.63 0 0 1 .78 11.29c3.55.22 7.11.44 10.69.64v-.64q.01-17.89-5.39-28.2zM317.3 23.26a31.58 31.58 0 0 0-1.3-9.88 18.46 18.46 0 0 0-3.52-6.41 10.35 10.35 0 0 0-4.71-3.19 21 21 0 0 0-6-.77h-16.58v38q13.38.75 27.06 1.38a24.25 24.25 0 0 0 2.93-5.34q2.12-5.3 2.12-13.79zm-11.18 7.2a9.48 9.48 0 0 1-1.45 3.3 4.84 4.84 0 0 1-2.49 2 12.14 12.14 0 0 1-3.59.46h-2.91V16.53h3.38a18.08 18.08 0 0 1 2.9.19 4.79 4.79 0 0 1 2.11.94 5.92 5.92 0 0 1 1.93 3.07 17 17 0 0 1 .59 4.75 21.24 21.24 0 0 1-.47 5.01zM354.62 30.01h-16.06V16.93H356V3.04h-27.95v40q11.61.46 23.4.85h3.17zM386.86 33.79a26.52 26.52 0 0 0-4.12-2.19l-4-1.64a9.49 9.49 0 0 1-4.33-3 8 8 0 0 1-1.11-4.5 8.25 8.25 0 0 1 .71-3.49 6.47 6.47 0 0 1 1.67-2.37 7.12 7.12 0 0 1 2.28-1.34 8 8 0 0 1 2.44-.34 11.43 11.43 0 0 1 6.8 2.39 22.56 22.56 0 0 1 5.62 5.86h.91V6.37a23.51 23.51 0 0 0-6.55-3.61 21.36 21.36 0 0 0-7.36-1.33q-7.36 0-12.29 6.43t-4.93 16.83a34.21 34.21 0 0 0 2.08 12.83 16.79 16.79 0 0 0 5.14 6.91q12.23.31 24.62.54a22.3 22.3 0 0 0-1.21-3.7 17 17 0 0 0-6.37-7.48zM399.36 37.26v7.8q9.17.15 18.44.25v-8.05zM460.07 21.37a33.25 33.25 0 0 0-6.47-12.54 14.52 14.52 0 0 0-7.17-4.8 32.48 32.48 0 0 0-8.19-1h-12.87v42.34q5.24 0 10.5.06v-28.5h.2c2.14 0 4 .06 5.52.2a7.2 7.2 0 0 1 4.43 2.26 17.75 17.75 0 0 1 4.31 8.05 47.35 47.35 0 0 1 1.41 12.38c0 2-.1 3.88-.26 5.65h10.75c.13-1.78.21-3.6.21-5.49a64.93 64.93 0 0 0-2.37-18.61zM508.62 33.79a26 26 0 0 0-4.11-2.19l-4-1.64a9.4 9.4 0 0 1-4.32-3 7.91 7.91 0 0 1-1.13-4.5 8.4 8.4 0 0 1 .71-3.49 6.37 6.37 0 0 1 1.68-2.36 7.12 7.12 0 0 1 2.28-1.35 8 8 0 0 1 2.44-.34 11.45 11.45 0 0 1 6.8 2.39 22.53 22.53 0 0 1 5.61 5.86h.91V6.37a23.51 23.51 0 0 0-6.55-3.61 21.27 21.27 0 0 0-7.35-1.33q-7.38 0-12.3 6.43t-4.92 16.83a34.21 34.21 0 0 0 2.08 12.83 16.84 16.84 0 0 0 6.13 7.66q11.86-.17 23.57-.41a20.23 20.23 0 0 0-1.16-3.5 16.82 16.82 0 0 0-6.37-7.48zM533.05 28.58a27 27 0 0 1 2.56-7.62 12.19 12.19 0 0 1 3.61-4.38 7.35 7.35 0 0 1 4.16-1.26 6.81 6.81 0 0 1 3.67 1.11 16.56 16.56 0 0 1 3.21 2.68 32.2 32.2 0 0 1 2.61 3.24c.76 1.1 1.4 2 1.9 2.83h1.07V7.58c-.69-.63-1.59-1.38-2.71-2.23a22.68 22.68 0 0 0-3.1-2 19.7 19.7 0 0 0-3.81-1.38 18.46 18.46 0 0 0-4.47-.5q-9.36 0-14.89 10.44t-5.52 28c0 1.65.05 3.25.11 4.8l10.74-.26c-.09-1.42-.14-2.9-.14-4.49a56.45 56.45 0 0 1 1-11.38zM594.49 11.75q-5.4-10.32-14.81-10.32t-14.85 10.36q-5.37 10.36-5.37 28.21c0 1.21 0 2.37.06 3.53l10.69-.4V40a69.55 69.55 0 0 1 .8-11.42 32.19 32.19 0 0 1 2.11-7.68 11.94 11.94 0 0 1 3.07-4.36 5.64 5.64 0 0 1 3.49-1.22 5.81 5.81 0 0 1 3.57 1.32 11.16 11.16 0 0 1 3.06 4.36 32.67 32.67 0 0 1 2.1 7.66 70.78 70.78 0 0 1 .78 11.29v2.36q5.37-.24 10.7-.51V40q.01-17.94-5.4-28.25zM608.21 3.04v38.33l10.52-.59V3.04zM632.41 3.04v36.92c3.52-.22 7-.44 10.51-.68V3.04zM676.77 3.04v33.75l9.52-.79V3zM651 3.04v35.69l9.51-.68v-12.7l3.81 12.41 9.9-.76-10.5-34zM725.68 16.93V3.04h-35v13.89h12.3v17.59c3.52-.32 7-.66 10.51-1V16.93zM467.14 3.04v42.38l10.54-.07V3.04z" fill="#727272"/><path d="M672.53 99.89l-2.85 2.71a8.78 8.78 0 0 0-6.51-3.06 7.14 7.14 0 0 0-7.23 7.23 7.67 7.67 0 0 0 .92 3.78 6.62 6.62 0 0 0 2.62 2.6 7.58 7.58 0 0 0 3.76.94 7.77 7.77 0 0 0 3.23-.66 11.66 11.66 0 0 0 3.21-2.4l2.75 2.87a15.11 15.11 0 0 1-4.46 3.2 12.25 12.25 0 0 1-4.79.89 11.35 11.35 0 0 1-9.86-16.89 10.77 10.77 0 0 1 4.13-4 11.69 11.69 0 0 1 5.79-1.51 12.35 12.35 0 0 1 9.28 4.28zM686.13 95.61a10.59 10.59 0 0 1 7.77 3.28 10.88 10.88 0 0 1 3.25 8 10.76 10.76 0 0 1-3.21 7.89 11.12 11.12 0 0 1-15.76-.09 11.2 11.2 0 0 1 8-19.06zm-.05 4a6.69 6.69 0 0 0-5 2.06 7.16 7.16 0 0 0-2 5.23 6.82 6.82 0 0 0 2.6 5.56 7 7 0 0 0 4.53 1.6 6.59 6.59 0 0 0 4.91-2.08 7.51 7.51 0 0 0 0-10.29 6.63 6.63 0 0 0-5.04-2.11zM703.04 96.15h3.95l4.94 14.86 5-14.86h3.95l3.57 21.3h-3.92L718.24 104l-4.56 13.45h-3.57L705.68 104l-2.34 13.45h-4z" fill="#4a4c4f"/><path fill="none" stroke="#4a4c4f" stroke-width="1.674" d="M167.01 134.68h558.67M167 115.46h464.29M631.26 96.67H167.03"/><path d="M641.58 112.5a2.72 2.72 0 0 1 2 .82 2.67 2.67 0 0 1 .83 2 2.82 2.82 0 1 1-5.64 0 2.66 2.66 0 0 1 .82-2 2.72 2.72 0 0 1 1.99-.82z" fill="#4a4c4f"/></svg>