<svg width="20" height="26" viewBox="0 0 20 26" fill="none" xmlns="http://www.w3.org/2000/svg">
<path fill-rule="evenodd" clip-rule="evenodd" d="M16.8602 10.6928L17.8041 12.1759L16.3103 13.1029C16.0865 13.2415 15.964 13.4968 15.9943 13.7588L16.2007 15.5043L14.4528 15.6915C14.1916 15.7194 13.9691 15.8959 13.8836 16.1449L13.3124 17.8077L11.6559 17.2176C11.4096 17.1297 11.1315 17.1924 10.9464 17.3799L9.71098 18.6298L8.4748 17.3799C8.34559 17.2487 8.17107 17.1782 7.99301 17.1782C7.91619 17.1782 7.83977 17.1912 7.76531 17.2176L6.10919 17.8077L5.53798 16.1449C5.53562 16.1394 5.53207 16.135 5.52971 16.1299C5.51001 16.0767 5.4848 16.0255 5.45289 15.979C5.44698 15.9715 5.44107 15.9656 5.43556 15.9581C5.4064 15.9195 5.37331 15.8849 5.33628 15.8534C5.32525 15.8439 5.31462 15.8345 5.3028 15.8258C5.25789 15.7919 5.21022 15.7616 5.15704 15.7399C5.15507 15.7395 5.1531 15.7391 5.15113 15.7379C5.10031 15.7171 5.04634 15.7048 4.9904 15.6974C4.98331 15.6962 4.97662 15.6922 4.96874 15.6918L3.22043 15.5047L3.42725 13.7588C3.45798 13.4976 3.33507 13.2419 3.11171 13.1033L1.6175 12.1763L2.56137 10.6931C2.7028 10.4714 2.7028 10.1869 2.56137 9.96515L1.6175 8.48197L3.11171 7.55542C3.33468 7.41636 3.45798 7.16069 3.42725 6.89951L3.22043 5.15357L4.96874 4.96684C5.23031 4.93887 5.4525 4.76239 5.53798 4.51303L6.10919 2.8506L7.76531 3.44033C8.01271 3.52897 8.28965 3.46633 8.4748 3.27842L9.71098 2.02766L10.9468 3.27803C11.1319 3.46554 11.4096 3.52818 11.6563 3.44033L13.3128 2.85021L13.884 4.51263C13.9695 4.7616 14.1916 4.93848 14.4532 4.96645L16.2011 5.15318L15.9947 6.89912C15.964 7.16069 16.0865 7.41597 16.3103 7.55503L17.8041 8.48157L16.8606 9.96475C16.7188 10.1865 16.7188 10.471 16.8602 10.6928ZM10.1419 21.6789C9.92331 21.5434 9.64637 21.5434 9.42734 21.6789L5.57501 24.0701V19.3413C5.68965 19.3614 5.80704 19.3551 5.91853 19.3149L7.81416 18.6397L9.22919 20.0709C9.35643 20.1997 9.53056 20.2722 9.71137 20.2722C9.89259 20.2722 10.0663 20.1997 10.1932 20.0709L11.6082 18.6397L13.5038 19.3149C13.6638 19.3724 13.8395 19.3645 13.9955 19.2984V24.0701L10.1419 21.6789ZM18.2354 10.3288L19.3156 8.63127C19.4129 8.47803 19.4452 8.29287 19.405 8.116C19.3645 7.93951 19.2557 7.78666 19.1013 7.69094L17.3912 6.63006L17.6276 4.632C17.6489 4.45197 17.5973 4.27115 17.4846 4.12933C17.3715 3.9883 17.2069 3.8973 17.0264 3.878L15.0256 3.66409L14.3721 1.76136C14.3126 1.59 14.1881 1.44936 14.025 1.37057C13.8623 1.29218 13.6732 1.28194 13.5034 1.343L11.6074 2.01821L10.1924 0.587026C9.93828 0.32939 9.4825 0.32939 9.2288 0.587026L7.81377 2.01821L5.91853 1.343C5.74834 1.28154 5.55965 1.29178 5.39656 1.37057C5.23347 1.44897 5.10859 1.5896 5.05028 1.76136L4.39634 3.66409L2.39513 3.878C2.2151 3.8973 2.05004 3.98791 1.93737 4.12933C1.82471 4.27115 1.7731 4.45236 1.79398 4.632L2.03034 6.63006L0.320647 7.69094C0.166616 7.78666 0.0574953 7.93951 0.0165256 8.116C-0.0228683 8.29287 0.0086468 8.47803 0.10595 8.63127L1.18653 10.3288L0.10595 12.0262C0.0086468 12.1791 -0.0228683 12.3646 0.0165256 12.5415C0.0571014 12.718 0.166223 12.8712 0.320647 12.9666L2.03034 14.0278L1.79398 16.0259C1.7731 16.2059 1.82471 16.3868 1.93737 16.5282C2.05004 16.67 2.2151 16.7602 2.39513 16.7795L4.21946 16.9745V25.2886C4.21946 25.5348 4.35301 25.7613 4.56731 25.8811C4.78201 26.0001 5.04556 25.9945 5.25434 25.8645L9.78465 23.0522L14.3149 25.8645C14.4241 25.9323 14.5486 25.9666 14.6726 25.9666C14.7861 25.9666 14.8996 25.9382 15.0024 25.8811C15.2175 25.7609 15.3506 25.5348 15.3506 25.2886V16.9591L17.0268 16.7799C17.2069 16.7602 17.3719 16.6704 17.4846 16.5286C17.5976 16.3871 17.6493 16.2063 17.628 16.0263L17.3916 14.0278L19.1017 12.967C19.2557 12.8716 19.3645 12.7184 19.4054 12.5419C19.4452 12.3654 19.4133 12.1799 19.316 12.0266L18.2354 10.3288Z" fill="#444444"/>
<path fill-rule="evenodd" clip-rule="evenodd" d="M12.2056 10.4186C12.0941 10.1188 11.9255 9.85328 11.7053 9.62952C11.4851 9.40537 11.2105 9.22849 10.8894 9.10282C10.4573 8.93422 9.93215 8.87788 9.33258 8.93934C9.26403 8.94643 9.19391 8.9551 9.123 8.96573L9.30933 7.86507H11.1758C11.5036 7.86507 11.7368 7.79061 11.8885 7.63816C12.0393 7.48767 12.1154 7.29267 12.1154 7.05867V6.32397H8.09561L7.42315 10.2571L8.44227 10.5478L8.50176 10.5269C8.84803 10.4052 9.18918 10.3437 9.51655 10.3437C9.91876 10.3437 10.2217 10.4395 10.4163 10.6286C10.6121 10.8188 10.7074 11.0816 10.7074 11.4322C10.7074 11.6288 10.6806 11.8127 10.6271 11.979C10.5762 12.1381 10.4998 12.2768 10.4002 12.391C10.3028 12.5025 10.178 12.5912 10.0287 12.6538C9.73203 12.7799 9.26915 12.7767 8.99576 12.6802C8.85276 12.6302 8.72709 12.5746 8.6227 12.5155C8.51042 12.4521 8.41115 12.3934 8.32409 12.3398C8.0113 12.1468 7.66779 12.2146 7.47752 12.4844L6.98706 13.162L7.11273 13.2809C7.24352 13.4042 7.39242 13.522 7.55552 13.6312C7.71979 13.7415 7.90061 13.8403 8.09324 13.9246C8.28667 14.0097 8.49585 14.0783 8.71448 14.1283C8.93588 14.1791 9.17303 14.2051 9.41924 14.2051C9.83682 14.2051 10.2296 14.137 10.5873 14.003C10.9465 13.8679 11.2621 13.6741 11.5256 13.4271C11.7908 13.1789 12.0003 12.8764 12.1481 12.5285C12.2962 12.1819 12.3714 11.7938 12.3714 11.3759C12.3714 11.0363 12.3155 10.714 12.2056 10.4186Z" fill="#444444"/>
</svg>
